<?xml version="1.0" standalone="no"?>
<!DOCTYPE svg PUBLIC "-//W3C//DTD SVG 20010904//EN"
 "http://www.w3.org/TR/2001/REC-SVG-20010904/DTD/svg10.dtd">
<svg version="1.0" xmlns="http://www.w3.org/2000/svg"
 width="1024.000000pt" height="1024.000000pt" viewBox="0 0 1024.000000 1024.000000"
 preserveAspectRatio="xMidYMid meet">
<metadata>
Created by potrace 1.11, written by Peter Selinger 2001-2013
</metadata>
<g transform="translate(0.000000,1024.000000) scale(0.100000,-0.100000)"
fill="#000000" stroke="none">
<path d="M0 5120 l0 -5120 5120 0 5120 0 0 5120 0 5120 -5120 0 -5120 0 0
-5120z m9380 2630 l0 -420 -210 0 -210 0 0 210 0 210 -3840 0 -3840 0 0 -210
0 -210 -210 0 -210 0 0 420 0 420 4260 0 4260 0 0 -420z m-3401 -516 c323 -58
610 -238 796 -499 234 -328 299 -747 174 -1119 -128 -382 -413 -667 -800 -799
-240 -82 -557 -79 -801 9 -415 149 -719 498 -809 928 -26 121 -30 340 -10 456
78 445 386 813 809 969 198 73 429 93 641 55z m-3655 -790 l340 -716 37 74
c20 40 170 357 334 703 164 347 303 636 308 643 11 14 87 17 87 3 0 -5 -162
-350 -360 -767 l-360 -759 0 -387 0 -388 -45 0 -45 0 0 388 0 389 -360 758
c-198 418 -360 763 -360 767 0 4 19 8 43 8 l42 0 339 -716z m138 140 l277
-575 -21 -45 c-12 -24 -24 -44 -27 -44 -6 1 -572 1182 -587 1223 -5 14 0 17
38 17 l44 0 276 -576z m151 111 l226 -466 -21 -44 c-12 -25 -24 -45 -27 -45
-5 0 -469 957 -486 1003 -6 15 -1 17 37 17 l45 0 226 -465z m149 110 l178
-354 -25 -52 -24 -52 -29 64 c-16 35 -105 216 -196 402 -91 185 -166 340 -166
342 0 3 19 5 43 5 l42 0 177 -355z m868 345 c0 -5 -162 -351 -360 -768 l-360
-759 0 -387 0 -386 -45 0 -45 0 0 389 0 388 339 714 c434 916 383 819 431 819
22 0 40 -4 40 -10z m207 3 c-3 -5 -167 -351 -366 -770 l-361 -762 0 -385 0
-386 -45 0 -45 0 0 388 0 388 349 735 c191 404 356 749 365 767 15 29 21 32
62 32 25 0 43 -3 41 -7z m169 -65 c-18 -40 -183 -387 -365 -771 l-331 -698 0
-384 0 -385 -45 0 -45 0 0 387 0 387 341 721 c188 396 352 741 366 768 23 46
25 47 68 47 l44 0 -33 -72z m3654 -778 l0 -850 -50 0 -50 0 0 843 c0 464 3
847 7 850 3 4 26 7 50 7 l43 0 0 -850z m200 0 l0 -850 -45 0 -45 0 0 850 0
850 45 0 45 0 0 -850z m200 0 l0 -850 -45 0 -45 0 0 850 0 850 45 0 45 0 0
-850z m200 0 l0 -850 -45 0 -45 0 0 850 0 850 45 0 45 0 0 -850z m0 -1105 l0
-45 -350 0 -350 0 0 45 0 45 350 0 350 0 0 -45z m0 -205 l0 -50 -347 2 -348 3
-3 48 -3 47 350 0 351 0 0 -50z m0 -200 l0 -50 -350 0 -350 0 0 50 0 50 350 0
350 0 0 -50z m-5600 -378 c96 -29 138 -48 208 -95 62 -42 69 -53 41 -70 -11
-7 -29 0 -67 27 -172 124 -497 155 -675 65 -96 -49 -172 -138 -203 -236 -22
-73 -19 -198 6 -274 63 -185 208 -267 473 -269 77 0 99 -14 115 -74 17 -62 -5
-107 -65 -132 -59 -25 -256 -14 -317 18 -16 9 -17 12 -3 25 12 13 23 13 66 4
29 -6 92 -11 142 -11 83 0 92 2 115 25 19 19 23 31 18 48 -12 41 -24 47 -98
47 -119 1 -205 17 -283 55 -153 75 -236 221 -235 414 0 220 127 383 343 441
98 27 319 23 419 -8z m622 -69 c8 -27 81 -303 163 -615 83 -313 153 -568 156
-568 3 0 70 244 149 543 79 298 152 575 163 615 17 64 22 72 43 72 13 0 24 -4
24 -10 0 -5 -79 -307 -175 -670 -96 -363 -175 -663 -175 -665 0 -3 -13 -5 -28
-5 l-28 0 -172 653 c-95 358 -175 662 -179 675 -4 18 -1 22 20 22 22 0 27 -7
39 -47z m234 -423 c116 -442 122 -467 111 -512 -6 -27 -12 -47 -13 -45 -2 1
-62 225 -134 497 -72 272 -133 503 -136 513 -5 15 -1 18 22 15 l27 -3 123
-465z m90 115 c90 -337 93 -352 81 -399 -9 -37 -13 -44 -19 -30 -4 11 -51 185
-104 388 -53 204 -99 376 -101 384 -4 10 2 13 22 10 l29 -3 92 -350z m92 115
c59 -223 62 -237 50 -282 -6 -26 -13 -46 -14 -45 -3 3 -94 343 -137 510 l-15
58 26 -3 c26 -3 29 -9 90 -238z m402 229 c0 -9 -325 -1251 -346 -1321 -5 -17
-54 -27 -54 -11 0 3 80 307 177 675 169 640 178 668 200 668 13 0 23 -5 23
-11z m120 -3 c0 -11 -328 -1260 -346 -1318 -3 -11 -15 -18 -31 -18 -19 0 -24
4 -21 18 3 9 83 313 179 675 165 626 175 657 196 657 13 0 23 -6 23 -14z m138
-18 c55 -196 146 -505 152 -511 4 -4 31 84 60 195 97 370 89 348 116 348 13 0
24 -4 24 -10 0 -5 -79 -307 -175 -670 -96 -363 -175 -662 -175 -665 0 -3 -13
-5 -28 -5 l-28 0 -79 270 c-43 149 -81 270 -84 270 -3 0 -38 -120 -77 -267
-70 -266 -71 -268 -98 -271 -23 -3 -27 0 -22 15 3 10 82 311 177 668 94 358
173 653 176 658 2 4 15 7 28 7 19 0 26 -7 33 -32z m472 21 c0 -9 -325 -1251
-346 -1321 -5 -17 -54 -27 -54 -11 0 3 80 307 177 675 169 640 178 668 200
668 13 0 23 -5 23 -11z m120 -3 c0 -11 -328 -1260 -346 -1318 -3 -11 -15 -18
-31 -18 -19 0 -24 4 -21 18 3 9 83 313 179 675 165 626 175 657 196 657 13 0
23 -6 23 -14z m130 12 c-1 -2 -81 -304 -179 -673 l-177 -670 -28 -3 c-23 -3
-27 0 -22 15 3 10 82 311 177 668 94 358 173 653 176 658 4 6 54 11 53 5z
m360 -673 l0 -675 -25 0 -25 0 0 675 0 675 25 0 25 0 0 -675z m120 0 l0 -675
-25 0 -25 0 0 675 0 675 25 0 25 0 0 -675z m118 -2 l2 -673 -30 0 -30 0 0 668
c0 368 3 672 7 676 4 4 16 6 28 4 20 -3 20 -7 23 -675z m112 2 l0 -675 -25 0
-25 0 0 675 0 675 25 0 25 0 0 -675z m410 0 l0 -675 -25 0 -25 0 0 675 0 675
25 0 25 0 0 -675z m120 0 l0 -675 -25 0 -25 0 0 675 0 675 25 0 25 0 0 -675z
m118 -2 l2 -673 -30 0 -30 0 0 668 c0 368 3 672 7 676 4 4 16 6 28 4 20 -3 20
-7 23 -675z m702 647 l0 -30 -295 0 -295 0 0 -30 0 -30 295 0 295 0 0 -25 0
-25 -295 0 -295 0 0 -35 0 -35 295 0 295 0 0 -25 0 -25 -295 0 -295 0 0 -150
0 -150 285 0 285 0 0 -25 0 -25 -285 0 -285 0 0 -35 0 -35 285 0 285 0 0 -25
0 -25 -286 0 -285 0 3 -32 3 -33 283 -3 282 -2 0 -25 0 -25 -285 0 -285 0 0
-235 0 -235 -25 0 -25 0 0 675 0 675 320 0 320 0 0 -30z m1188 -2 l3 -28 -440
0 -441 0 0 30 0 30 438 -2 437 -3 3 -27z m-5701 -59 c72 -18 135 -46 186 -81
27 -19 27 -21 11 -39 -16 -18 -17 -18 -44 1 -111 79 -363 117 -504 76 -107
-31 -186 -116 -206 -222 -23 -120 22 -239 113 -301 58 -39 121 -53 240 -53
115 0 181 -27 222 -88 51 -78 50 -206 -4 -272 -75 -94 -199 -121 -387 -85 -78
15 -184 58 -184 75 0 25 35 27 84 5 113 -52 307 -58 388 -13 62 34 88 78 88
150 0 72 -25 125 -72 153 -26 15 -59 21 -163 26 -113 5 -138 9 -193 34 -73 33
-124 84 -160 164 -22 47 -26 70 -26 146 0 108 20 160 88 233 105 112 304 147
523 91z m5703 -54 l0 -25 -440 0 -440 0 0 25 0 25 440 0 440 0 0 -25z m-5780
-49 c76 -14 136 -35 178 -62 24 -16 24 -16 4 -30 -18 -12 -26 -11 -74 11 -122
56 -325 56 -408 1 -70 -46 -92 -178 -42 -245 42 -57 64 -65 205 -72 182 -11
223 -25 296 -104 61 -67 84 -123 89 -225 3 -70 0 -95 -18 -144 -28 -73 -98
-147 -173 -181 -156 -71 -431 -45 -587 55 -41 26 -48 35 -39 46 16 19 36 18
67 -5 104 -73 370 -109 497 -66 131 44 205 143 205 275 0 123 -62 227 -162
270 -41 17 -80 24 -182 29 -156 8 -201 27 -244 101 -23 39 -27 56 -27 127 0
74 3 85 30 124 68 96 198 128 385 95z m5780 -71 l0 -25 -120 0 -120 0 0 -530
0 -530 -25 0 -25 0 0 530 0 530 -35 0 -35 0 0 -530 0 -530 -25 0 -25 0 0 530
0 530 -30 0 -30 0 0 -530 0 -530 -25 0 -25 0 -2 528 -3 527 -32 3 -33 3 0
-530 0 -531 -25 0 -25 0 0 530 0 530 -120 0 -120 0 0 25 0 25 440 0 440 0 0
-25z m-5760 -48 c30 -7 64 -18 74 -24 19 -10 18 -11 -3 -22 -17 -9 -35 -10
-72 -2 -68 15 -208 14 -239 -2 -18 -9 -26 -22 -28 -45 -5 -51 11 -62 89 -62
291 0 458 -114 514 -352 64 -272 -94 -514 -373 -568 -39 -8 -110 -11 -190 -8
-109 4 -141 10 -222 37 -100 34 -157 63 -210 107 -30 26 -31 27 -10 41 18 13
23 12 52 -10 101 -76 234 -117 396 -124 186 -8 292 23 394 117 205 187 151
551 -99 667 -54 25 -171 43 -280 43 -56 0 -63 3 -87 31 -51 61 -26 157 47 178
48 14 184 12 247 -2z m-1290 -1387 l0 -210 3840 0 3840 0 0 210 0 210 210 0
210 0 0 -420 0 -420 -4260 0 -4260 0 0 420 0 420 210 0 210 0 0 -210z"/>
<path d="M5565 7145 c-457 -85 -811 -416 -925 -863 -41 -164 -41 -389 0 -553
99 -390 378 -692 761 -822 159 -55 393 -73 559 -43 400 72 733 344 879 720 51
131 71 224 78 367 29 583 -382 1093 -961 1194 -106 18 -293 18 -391 0z m470
-125 c329 -89 613 -355 721 -674 88 -257 68 -571 -51 -806 -108 -213 -290
-388 -511 -492 -257 -120 -592 -121 -858 -4 -250 111 -477 358 -565 615 -132
385 -35 802 253 1086 154 153 329 248 532 290 106 22 375 14 479 -15z"/>
<path d="M5607 6950 c-131 -22 -298 -93 -411 -174 -165 -118 -303 -321 -361
-534 -22 -77 -31 -298 -16 -391 62 -395 366 -705 772 -787 111 -22 311 -15
419 16 177 50 373 172 479 299 302 364 306 865 10 1237 -131 165 -368 299
-589 334 -75 11 -233 11 -303 0z m333 -115 c242 -51 463 -219 577 -440 60
-116 93 -254 93 -390 0 -335 -186 -625 -493 -771 -124 -58 -182 -69 -362 -68
-152 0 -165 2 -255 32 -288 96 -503 333 -566 625 -19 87 -21 260 -4 342 68
338 322 595 660 671 79 17 265 17 350 -1z"/>
<path d="M5605 6745 c-94 -21 -168 -52 -248 -105 -224 -145 -347 -371 -347
-635 0 -264 123 -489 347 -635 123 -81 256 -120 408 -120 120 0 214 23 335 82
91 44 116 62 190 137 47 47 100 112 119 143 146 250 146 536 0 786 -19 31 -70
93 -114 137 -114 114 -230 177 -384 210 -87 18 -223 18 -306 0z m319 -115
c285 -73 486 -331 486 -625 0 -241 -140 -470 -350 -573 -47 -23 -112 -49 -145
-57 -76 -19 -222 -19 -304 0 -226 54 -417 241 -476 470 -21 80 -21 233 0 315
46 182 176 343 339 421 48 23 111 48 139 55 82 20 222 17 311 -6z"/>
<path d="M5633 6546 c-93 -22 -179 -71 -259 -151 -113 -111 -164 -233 -164
-390 0 -156 51 -279 164 -391 172 -173 412 -213 635 -107 95 45 202 149 249
243 152 303 4 669 -316 781 -75 27 -225 34 -309 15z"/>
<path d="M4311 4254 c-5 -22 -13 -50 -16 -64 -3 -16 22 -119 70 -285 41 -143
78 -267 81 -275 4 -9 13 8 23 44 l17 60 -79 275 c-43 152 -80 278 -82 280 -2
1 -8 -14 -14 -35z"/>
<path d="M4244 4004 l-17 -59 78 -270 c42 -148 81 -274 85 -278 4 -4 13 20 20
54 l13 62 -78 271 c-42 149 -79 273 -81 275 -1 2 -10 -23 -20 -55z"/>
<path d="M4198 3825 c-3 -6 -11 -35 -17 -65 -12 -54 -11 -60 67 -330 72 -249
81 -272 91 -247 31 78 21 124 -133 642 -1 6 -4 6 -8 0z"/>
</g>
</svg>
